<?xml version="1.0" encoding="utf-8"?>
<!-- Generator: Adobe Illustrator 25.1.0, SVG Export Plug-In . SVG Version: 6.00 Build 0)  -->
<svg version="1.1" id="Layer_1" xmlns="http://www.w3.org/2000/svg" xmlns:xlink="http://www.w3.org/1999/xlink" x="0px" y="0px"
	 viewBox="0 0 50 62.5" style="enable-background:new 0 0 50 62.5;" xml:space="preserve" fill="#fff">
<g>
	<path d="M26.3,47.1c1.1,0.8,2.5,0.3,3.6-0.2c1.2-0.6,2.2-1.3,3.4-1.5c1.3-0.3,3.4,0.2,3.6,1.8c0.1,1.6-1.9,2.7-3.3,2.2
		c-1.2-0.4-1.2-1.1-2.1-1.7c-0.3,0.2-0.6,0.3-1,0.5c-1.1,0.5-2.2,0.9-3.5,0.7c-0.4-0.1-1-0.3-1.4-0.6c-0.5-0.4-0.7-0.9-0.6-1.3
		c0.1-0.8,0.8-1.2,1.8-1.4c0.4-0.1,0.7,0.2,0.8,0.6c0.1,0.4-0.2,0.7-0.6,0.8L26.3,47.1z M19.9,46.9c1.1,0.5,2.5,1,3.6,0.2l-0.7-0.1
		c-0.4-0.1-0.7-0.4-0.6-0.8c0.1-0.4,0.4-0.6,0.8-0.6c1,0.1,1.8,0.5,1.8,1.4c0,0.4-0.1,0.9-0.6,1.3c-0.4,0.3-0.9,0.6-1.4,0.6
		c-1.2,0.2-2.4-0.2-3.5-0.7c-0.4-0.2-0.7-0.3-1-0.5c-0.9,0.6-0.9,1.3-2.1,1.7c-1.4,0.5-3.4-0.6-3.3-2.2c0.1-1.6,2.3-2.1,3.6-1.8
		C17.7,45.6,18.7,46.3,19.9,46.9z M14.3,35.4h21.1v1.4H14.3V35.4z M25.6,23.8c2.4,0.2,4.5,1.2,6.1,2.8c2.1,2.1,2.8,4.5,2.8,7.4H15.2
		c0-2.9,0.7-5.3,2.8-7.4c1.6-1.6,3.7-2.6,6.1-2.8V23h-1.3v-1.4h4.1V23h-1.3L25.6,23.8L25.6,23.8z M31.3,13.6h-8.4
		c3-0.9,5.8-2,8.4-3.3V13.6z M23.8,26.6l-0.4-1.4l-0.2,0.1c-1.6,0.5-2.8,1-4.1,2.2c-1.2,1.2-1.8,2.4-2.3,4l-0.1,0.2l1.4,0.4l0.1-0.2
		c0.4-1.4,0.9-2.4,1.9-3.4c1-1,2.1-1.5,3.4-1.8L23.8,26.6z M17.1,47c-0.5-0.5-2.7-0.6-2.8,0.3c0,0.5,0.9,0.9,1.4,0.7
		C16.1,47.9,16.5,47.3,17.1,47z M35.4,47.3c-0.1-0.9-2.2-0.8-2.8-0.3c0.6,0.3,1,1,1.3,1.1C34.5,48.2,35.4,47.7,35.4,47.3z
		 M41.7,13.6H34V5.5c-4.3,2.5-7.7,4.2-12.6,5.6c-3.8,1.1-10.2,2.5-13.5,2.5v41.9h33.7L41.7,13.6L41.7,13.6z"/>
</g>
</svg>
